<svg width="598" height="162" viewBox="0 0 598 162" fill="none" xmlns="http://www.w3.org/2000/svg">
<path d="M20.4099 0.474411C21.5156 0.465024 22.6214 0.455637 23.7606 0.445965C25.5842 0.440674 25.5842 0.440674 27.4446 0.435276C28.7232 0.426655 30.0018 0.418034 31.3191 0.409152C35.5644 0.383224 39.8097 0.367954 44.0551 0.354883C46.2281 0.346863 46.2281 0.346863 48.445 0.33868C56.1147 0.311294 63.7844 0.292541 71.4542 0.280255C79.3751 0.265748 87.2955 0.220633 95.2163 0.168517C101.307 0.134203 107.397 0.123231 113.488 0.11852C116.407 0.112131 119.327 0.0968794 122.246 0.0725535C126.337 0.04059 130.426 0.0418142 134.517 0.0509263C135.72 0.0341206 136.922 0.0173149 138.161 0C145.951 0.0631211 150.638 1.10786 156.875 5.91514C162.428 13.1522 162.89 19.0838 162.825 28.0175C162.842 29.9136 162.842 29.9136 162.86 31.848C162.889 36.0072 162.88 40.1652 162.869 44.3245C162.875 47.2275 162.884 50.1306 162.893 53.0337C162.907 59.1112 162.901 65.1883 162.882 71.2658C162.859 79.0403 162.89 86.8136 162.936 94.588C162.965 100.581 162.963 106.574 162.952 112.568C162.951 115.433 162.96 118.299 162.979 121.165C163.002 125.178 162.983 129.188 162.953 133.201C162.977 134.963 162.977 134.963 163 136.76C162.878 144.904 161.045 150.634 155.563 156.785C149.022 161.583 142.434 161.289 134.629 161.251C133.335 161.26 132.04 161.269 130.707 161.278C126.441 161.302 122.176 161.297 117.91 161.29C114.938 161.296 111.967 161.303 108.996 161.311C102.773 161.322 96.5504 161.319 90.3277 161.306C82.3568 161.291 74.3865 161.317 66.4157 161.356C60.2813 161.38 54.1471 161.379 48.0127 161.372C45.0738 161.372 42.135 161.38 39.1962 161.396C35.0868 161.416 30.9788 161.402 26.8694 161.379C25.6582 161.392 24.4471 161.404 23.1992 161.417C15.9571 161.334 11.4957 160.561 5.93577 155.473C0.476841 148.167 -0.0699469 142.4 0.0272043 133.45C0.0201128 132.194 0.0130213 130.939 0.00571488 129.645C-0.0106342 125.516 0.0109417 121.388 0.0345744 117.259C0.0343709 114.379 0.0324153 111.499 0.0287865 108.619C0.0269718 102.592 0.0434231 96.5657 0.0733474 90.539C0.110624 82.8203 0.107001 75.1023 0.0902919 67.3836C0.0811571 61.44 0.0913881 55.4965 0.107692 49.5529C0.113612 46.707 0.114064 43.8611 0.108919 41.0151C0.105092 37.0367 0.126783 33.0592 0.15538 29.0808C0.149471 27.9091 0.143563 26.7374 0.137475 25.5301C0.227573 17.9731 1.26159 12.1385 6.63817 6.38148C14.32 0.509858 14.32 0.509858 20.4099 0.474411Z" fill="url(#paint0_linear_10_4)"/>
<path d="M24.0188 93.8054C23.553 93.7891 23.0872 93.7729 22.6073 93.7561C22.7636 86.2687 22.9483 78.7826 23.1587 71.2965C23.2263 68.7519 23.2863 66.2072 23.3383 63.6623C23.4147 59.9953 23.5189 56.33 23.6282 52.6638C23.6458 51.5335 23.6634 50.4032 23.6815 49.2386C23.9214 42.3096 24.9931 37.6804 29.0108 31.7965C34.6268 26.9542 38.9175 24.9364 46.3028 25.0615C47.4538 25.079 48.6047 25.0965 49.7906 25.1145C55.0592 25.2353 60.3274 25.3616 65.5953 25.513C68.3656 25.5864 71.1363 25.6446 73.9073 25.6873C77.9192 25.7496 81.9274 25.859 85.9379 25.9784C87.1642 25.9892 88.3905 26 89.654 26.0111C98.4549 26.3487 104.28 28.7591 110.88 34.6554C115.986 41.9221 116.873 48.6818 115.738 57.4372C113.548 60.868 110.805 63.4986 107.834 66.259C107.09 66.9972 106.346 67.7355 105.58 68.4961C103.667 70.3537 101.649 72.1034 99.6195 73.8334C98.6878 73.8008 97.7562 73.7683 96.7964 73.7348C96.7661 72.1506 96.7358 70.5664 96.7045 68.9342C96.658 66.8513 96.6111 64.7685 96.5639 62.6856C96.5448 61.642 96.5257 60.5983 96.506 59.5231C96.3986 55.0225 96.1897 51.1557 94.9098 46.817C82.3329 46.3778 69.7561 45.9386 56.7981 45.4861C64.4568 53.802 72.0293 61.9837 80.3672 69.6224C83.6022 72.6451 86.5731 75.8514 89.5415 79.1344C86.9995 85.1119 82.5151 88.6114 77.7562 92.8555C72.5173 90.4638 69.2869 87.039 65.409 82.8296C64.7818 82.153 64.1547 81.4763 63.5086 80.7792C61.5181 78.6284 59.5381 76.4683 57.5582 74.3078C56.2059 72.843 54.853 71.3788 53.4994 69.9152C50.1922 66.3366 46.8943 62.7495 43.6012 59.1579C43.5334 60.4977 43.4655 61.8375 43.3956 63.2179C42.3275 77.7366 42.3275 77.7366 38.2123 83.3704C36.9118 84.2505 35.6112 85.1305 34.2713 86.0372C32.3237 87.423 32.3237 87.423 30.3367 88.8367C29.216 89.5773 28.0952 90.3179 26.9405 91.0809C25.9764 91.98 25.0122 92.8791 24.0188 93.8054Z" fill="#FCF9FE"/>
<path d="M109.427 141.211C108.147 141.174 106.868 141.137 105.55 141.098C102.848 141.013 100.146 140.917 97.4454 140.811C93.3375 140.655 89.2306 140.552 85.1211 140.454C82.4881 140.364 79.8553 140.271 77.2226 140.175C75.3972 140.135 75.3972 140.135 73.535 140.094C65.2794 139.712 59.0681 137.844 52.3286 132.952C46.3185 126.175 45.1629 120.631 45.6135 111.828C46.3851 106.97 48.2256 104.915 52.0015 101.849C55.3134 100.242 58.5132 99.1067 62.0302 97.9591C62.2416 99.26 62.4531 100.561 62.6709 101.901C62.9672 103.591 63.2634 105.281 63.5686 107.022C63.8542 108.705 64.1397 110.387 64.434 112.12C65.2399 116.838 65.2399 116.838 69.7601 119.428C73.4391 119.946 73.4391 119.946 77.5746 119.977C79.0897 120.021 80.6048 120.064 82.1659 120.11C83.747 120.141 85.3281 120.173 86.9571 120.205C88.5543 120.248 90.1514 120.291 91.7969 120.335C95.7435 120.44 99.69 120.531 103.637 120.611C100.513 117.464 97.3824 114.324 94.2501 111.185C93.3614 110.29 92.4727 109.394 91.557 108.472C90.7033 107.618 89.8495 106.763 88.9699 105.883C88.1834 105.094 87.3968 104.304 86.5865 103.49C84.5436 101.438 84.5436 101.438 81.7425 100.061C82.7155 95.1826 84.3358 93.0497 88.1903 89.9515C89.0553 89.2293 89.9204 88.5071 90.8117 87.763C93.5278 86.3397 93.5278 86.3397 96.1859 86.4215C100.573 88.7007 103.493 92.235 106.708 95.8978C110.362 99.9947 113.755 103.763 118.246 106.988C118.245 105.708 118.244 104.427 118.243 103.107C118.682 93.2291 119.35 86.9373 126.785 79.9932C130.596 76.8642 133.033 75.1523 137.779 73.7525C137.65 81.4421 137.484 89.1298 137.284 96.8179C137.221 99.4312 137.168 102.045 137.126 104.658C137.063 108.424 136.964 112.188 136.857 115.952C136.846 117.114 136.834 118.275 136.823 119.472C136.562 127.018 135.27 131.363 129.914 137.074C123.541 142.145 117.185 141.509 109.427 141.211Z" fill="#FDF9FE"/>
<path d="M486 8.02144C490.82 7.89688 495.638 7.80665 500.459 7.74678C502.095 7.7218 503.732 7.6878 505.367 7.64424C523.383 7.17695 523.383 7.17695 530 13.0214C534.845 18.3919 536.42 23.2839 536.348 30.3847C535.608 35.9951 532.362 39.7244 528.375 43.5214C526 45.0214 526 45.0214 523 45.0214C523.53 45.7625 523.53 45.7625 524.07 46.5185C525.674 48.7674 527.275 51.0194 528.875 53.2714C529.708 54.4374 529.708 54.4374 530.559 55.6269C531.094 56.381 531.629 57.1351 532.18 57.9121C532.672 58.6033 533.164 59.2946 533.671 60.0068C534.956 61.9545 536.004 63.914 537 66.0214C531.814 66.69 527.169 66.9693 522 66.0214C517.782 62.4408 515.397 57.9279 513.023 52.9902C512.141 51.1405 512.141 51.1405 510 49.0214C506.253 48.2142 502.865 48.1135 499 48.0214C499 53.9614 499 59.9014 499 66.0214C494.71 66.0214 490.42 66.0214 486 66.0214C486 50.1814 486 34.3414 486 18.0214C490.727 20.3849 494.761 22.7723 498 27.0214C498.667 30.4904 498.411 33.5408 498 37.0214C501.065 36.9883 504.124 36.9211 507.188 36.8339C508.484 36.8252 508.484 36.8252 509.807 36.8164C514.292 36.6617 516.422 36.4539 520.109 33.6972C522.339 31.0739 522.339 31.0739 522.062 27.3964C521.272 24.1105 521.272 24.1105 519.531 22.3144C516.247 20.6369 513.731 20.8397 510.093 20.9104C497.171 21.1468 497.171 21.1468 491.668 16.4787C489.59 14.4349 487.712 12.3819 486 10.0214C486 9.36144 486 8.70144 486 8.02144Z" fill="black"/>
<path d="M463.293 12.5293C469.142 17.2477 473.597 23.536 475 31.0215C475.994 41.25 474.699 50.2675 468.051 58.4082C461.583 64.6904 453.908 68.1088 444.875 68.459C435.361 68.021 427.798 64.1898 421.313 57.2715C415.364 50.0859 414.424 43.7876 414.652 34.4941C415.512 25.9091 419.139 20.1493 425 14.0215C428.466 15.1767 428.679 15.6523 430.25 18.7715C431.507 21.4591 432.012 22.7661 431.875 25.7715C431 28.0215 431 28.0215 429.973 29.834C428.095 34.0576 428.389 38.5107 429 43.0215C431.087 48.3002 433.863 51.5272 439 54.0215C444.474 54.8393 449.428 54.7234 454.5 52.459C459.568 47.5177 461.24 43.9632 461.5 36.959C461.316 31.8671 460.551 28.8604 457 25.0215C452.391 20.8617 449.345 19.913 443.133 19.8887C440.69 20.0408 438.388 20.4973 436 21.0215C435.134 19.5914 434.282 18.1521 433.438 16.709C432.962 15.9085 432.486 15.108 431.996 14.2832C431 12.0215 431 12.0215 432 9.02147C442.395 4.72798 453.993 6.41411 463.293 12.5293Z" fill="black"/>
<path d="M263.607 67.8268C256.905 64.4275 251.239 59.203 248.311 52.1728C245.211 42.3745 244.603 33.2847 249.414 23.9397C254.435 16.45 261.231 11.5106 269.994 9.29001C279.39 7.74038 287.586 9.91529 295.367 15.3341C302.68 21.1259 304.909 27.091 306.618 36.229C307.562 44.8051 305.212 51.1931 300.753 58.4057C297.122 57.9962 296.815 57.5753 294.63 54.851C292.841 52.4835 292.076 51.3099 291.585 48.3418C291.973 45.9591 291.973 45.9591 292.601 43.9726C293.56 39.4508 292.346 35.1563 290.811 30.871C287.671 26.1416 284.286 23.5621 278.742 22.1905C273.217 22.5288 268.396 23.6719 263.906 26.9415C259.976 32.8285 259.08 36.6529 260.281 43.5582C261.52 48.5004 262.893 51.2825 267.165 54.2992C272.538 57.4097 275.715 57.7044 281.796 56.4367C284.154 55.7801 286.311 54.8549 288.538 53.8457C289.682 55.0644 290.814 56.2952 291.941 57.5312C292.572 58.2153 293.204 58.8994 293.855 59.6042C295.3 61.6094 295.3 61.6094 294.945 64.7518C285.67 71.1127 273.974 71.8749 263.607 67.8268Z" fill="black"/>
<path d="M547 8.02149C551.838 7.92197 556.675 7.84972 561.514 7.80176C563.157 7.78175 564.8 7.75454 566.443 7.71973C568.816 7.67073 571.189 7.64841 573.562 7.63086C574.649 7.59989 574.649 7.59989 575.757 7.5683C581.248 7.56593 585.401 9.00518 590 12.0215C595.682 18.0029 596.457 22.7949 596.312 30.8887C595.752 36.509 592.903 39.3226 588.875 42.8965C586 45.0215 586 45.0215 584 45.0215C584.53 45.7625 584.53 45.7625 585.07 46.5186C586.674 48.7675 588.275 51.0194 589.875 53.2715C590.708 54.4374 590.708 54.4374 591.559 55.627C592.094 56.3811 592.629 57.1352 593.18 57.9121C593.672 58.6034 594.164 59.2946 594.671 60.0068C595.956 61.9545 597.004 63.914 598 66.0215C592.669 66.9848 587.215 67.8893 582 66.0215C577.116 61.9332 573.576 55.8009 571 50.0215C571 49.3615 571 48.7015 571 48.0215C567.37 48.0215 563.74 48.0215 560 48.0215C560 53.9615 560 59.9015 560 66.0215C555.71 66.0215 551.42 66.0215 547 66.0215C547 50.1815 547 34.3415 547 18.0215C549.97 20.0015 549.97 20.0015 553 22.0215C554.114 22.7227 555.227 23.424 556.375 24.1465C559.343 27.3973 559.375 28.1273 559.375 32.334C559.279 33.8985 559.163 35.4625 559 37.0215C561.73 36.9071 564.458 36.7804 567.188 36.6465C568.341 36.6001 568.341 36.6001 569.518 36.5527C573.695 36.3376 577.242 36.05 581 34.0215C582.555 30.9123 582.727 27.3907 582 24.0215C580.615 22.0648 580.615 22.0648 578 21.0215C575.684 20.8337 573.416 20.8653 571.093 20.9104C558.171 21.1468 558.171 21.1468 552.668 16.4788C550.59 14.435 548.712 12.382 547 10.0215C547 9.36149 547 8.70149 547 8.02149Z" fill="black"/>
<path d="M231 11.0215C233.355 12.6582 233.355 12.6582 235 14.0215C233.787 17.7459 232.491 21.3995 231 25.0215C228.19 23.9146 225.507 22.7704 222.812 21.3965C218.41 19.4862 213.72 19.3571 209 20.0215C206.65 21.9191 206.65 21.9191 206.875 25.1465C206.937 26.5696 206.937 26.5696 207 28.0215C207.655 28.1801 208.31 28.3386 208.984 28.502C231.087 34.1526 231.087 34.1526 237 43.0215C237.686 48.5472 237.748 53.4697 235.312 58.5215C230.132 64.1223 225.01 67.4739 217.355 68.3106C206.715 68.638 199.47 65.2085 191 59.0215C192.156 55.1094 193.355 52.147 196 49.0215C198.341 49.8994 200.596 50.7871 202.762 52.045C208.024 55.0549 212.956 56.1624 219 55.0215C221.262 53.5871 221.262 53.5871 223 52.0215C222.883 49.5729 222.883 49.5729 222 47.0215C219.857 45.6773 219.857 45.6773 217.125 44.959C216.134 44.6342 215.142 44.3093 214.121 43.9746C212.094 43.3556 210.065 42.7407 208.035 42.1309C201.585 40.0427 197.718 37.7826 194 32.0215C192.143 28.3072 192.557 24.0753 193 20.0215C195.872 14.1663 200.24 10.1149 206.312 7.70902C215.334 6.02696 222.539 7.36029 231 11.0215Z" fill="black"/>
<path d="M354 8.0215C358.29 8.0215 362.58 8.0215 367 8.0215C370.753 16.0816 374.129 24.2213 377.312 32.5215C377.994 34.2695 377.994 34.2695 378.689 36.0527C379.118 37.1665 379.547 38.2803 379.988 39.4277C380.375 40.4313 380.763 41.4348 381.161 42.4688C382 45.0215 382 45.0215 382 48.0215C382.66 48.0215 383.32 48.0215 384 48.0215C384.151 47.4744 384.303 46.9272 384.458 46.3635C386.553 39.075 389.165 32.0091 391.871 24.9319C392.635 22.9329 393.392 20.9315 394.148 18.9297C394.632 17.6568 395.117 16.384 395.602 15.1113C396.038 13.9653 396.475 12.8192 396.924 11.6384C398 9.0215 398 9.0215 399 8.0215C401.186 7.94891 403.375 7.93776 405.562 7.959C407.359 7.97253 407.359 7.97253 409.191 7.98634C410.118 7.99794 411.045 8.00955 412 8.0215C411.37 11.6783 410.365 14.9092 408.975 18.3467C408.557 19.3842 408.14 20.4216 407.711 21.4906C407.034 23.1533 407.034 23.1533 406.344 24.8496C405.881 25.9944 405.419 27.1391 404.943 28.3186C403.717 31.351 402.487 34.3817 401.255 37.4118C400.499 39.2749 399.745 41.1392 398.993 43.0039C397.55 46.5787 396.104 50.152 394.656 53.7246C394.205 54.8412 393.754 55.9578 393.289 57.1082C392.872 58.1331 392.455 59.158 392.025 60.2139C391.658 61.1204 391.29 62.0268 390.911 62.9608C390 65.0215 390 65.0215 389 66.0215C386.814 66.0941 384.625 66.1052 382.438 66.084C380.641 66.0705 380.641 66.0705 378.809 66.0567C377.882 66.0451 376.955 66.0335 376 66.0215C375.562 64.842 375.123 63.6625 374.672 62.4473C369.181 47.7958 363.239 33.3507 357.202 18.918C356.607 17.4842 356.607 17.4842 356 16.0215C355.618 15.1327 355.235 14.2439 354.841 13.3281C354 11.0215 354 11.0215 354 8.0215Z" fill="black"/>
<path d="M315 9.02148C319.29 9.02148 323.58 9.02148 328 9.02148C328 24.2015 328 39.3815 328 55.0215C337.57 55.0215 347.14 55.0215 357 55.0215C357 58.6515 357 62.2815 357 66.0215C343.14 66.0215 329.28 66.0215 315 66.0215C315 47.2115 315 28.4015 315 9.02148Z" fill="black"/>
<path d="M354.167 91.3881C357.674 93.171 360.893 95.3234 363.609 98.2581C363.644 98.9239 363.679 99.5896 363.715 100.276C361.854 102.017 360.667 104.259 358.792 105.748C356.264 104.698 354.428 103.58 352.092 102.094C346.808 98.9448 342.326 99.3912 336.404 100.632C331.147 103.692 329.586 106.142 326.885 112.427C325.914 118.486 324.978 125.545 328.592 131.364C331.892 136.677 334.596 137.545 340.521 139.25C347.551 139.598 351.597 137.44 357.21 132.868C358.155 131.832 358.322 132.184 359.732 133.237C361.732 134.143 363.618 135.682 365.618 136.589C363.564 142.75 357.988 145.832 352.653 148.774C344.201 151.029 336.397 150.471 328.653 146.172C322.083 141.833 317.242 136.08 315.395 128.095C313.988 117.469 314.26 109.431 320.4 100.499C328.961 89.7713 341.583 86.3371 354.167 91.3881Z" fill="black"/>
<path d="M260 102.267C266 106.267 267 107.267 269 108.267C269 112.557 269 111.957 269 116.377C279.23 116.377 287.46 116.377 298 116.377C298 118.357 298 125.727 298 127.767C287.77 127.767 279.54 127.767 269 127.767C269 134.037 269 131.807 269 138.267C280.88 138.267 290.76 138.267 303 138.267C303 140.577 303 147.387 303 149.767C288.81 149.767 274.62 149.767 260 149.767C260 133.927 260 118.587 260 102.267Z" fill="black"/>
<path d="M196 90.656C211.84 90.656 229.68 90.656 246 90.656C246 92.966 246 100.387 246 102.767C239.4 102.767 234.8 102.767 228 102.767C228 119.597 227.5 131.316 227.5 148.656C224.86 148.656 216.22 148.656 213.5 148.656C213.5 131.826 213.5 120.107 213.5 102.767C206.9 102.767 202.8 102.767 196 102.767C196 100.457 196 93.036 196 90.656Z" fill="black"/>
<path d="M421 90.656C423.31 90.656 431.12 90.656 433.5 90.656C433.5 109.796 434 129.547 434 149.267C431.69 149.267 423.38 148.656 421 148.656C421 140.406 421 132.156 421 123.656C419.158 123.714 417.316 123.772 415.418 123.832C413.008 123.879 410.598 123.924 408.187 123.969C406.973 124.01 405.758 124.052 404.506 124.095C403.342 124.112 402.179 124.128 400.98 124.144C399.37 124.184 399.37 124.184 397.727 124.224C395 123.656 395 123.656 393.126 121.25C392 118.656 391 114.267 391 112.267C400.57 112.267 411.14 112.267 421 112.267C421 103.687 421 99.496 421 90.656Z" fill="black"/>
<path d="M375 90.2666C377.263 90.2666 384.669 90.2666 387 90.2666C387 109.407 387 128.547 387 148.267C384.737 148.267 377.331 148.267 375 148.267C375 129.127 375 109.987 375 90.2666Z" fill="black"/>
<path d="M260 90.656C274.19 90.656 288.38 90.656 303 90.656C303 93.3387 303 97.892 303 100.656C288.81 100.656 274.62 100.656 260 100.656C260 97.9733 260 93.42 260 90.656Z" fill="black"/>
<defs>
<linearGradient id="paint0_linear_10_4" x1="150.969" y1="-0.644434" x2="-44.9068" y2="202.59" gradientUnits="userSpaceOnUse">
<stop stop-color="#AC6AFF"/>
<stop offset="1" stop-color="#FF0044"/>
</linearGradient>
</defs>
</svg>
