<svg width="1244" height="466" viewBox="0 0 1244 466" fill="none" xmlns="http://www.w3.org/2000/svg">
<rect y="43" width="380" height="381.041" rx="60" fill="#3CA7FF"/>
<path d="M190.708 76.0315C191.092 76.0211 191.477 76.0107 191.873 76C197.247 76.0047 201.532 78.7119 205.934 81.5298C206.402 81.8248 206.871 82.1199 207.354 82.4239C208.307 83.0247 209.26 83.6272 210.211 84.2314C211.913 85.31 213.621 86.3764 215.331 87.4416C216.863 88.3966 218.394 89.3553 219.924 90.3141C218.381 91.9886 216.82 93.0927 214.848 94.2243C214.556 94.3935 214.264 94.5628 213.963 94.7372C213.332 95.1024 212.7 95.4661 212.067 95.8286C210.355 96.8102 208.65 97.8033 206.945 98.7953C206.418 99.101 206.418 99.101 205.881 99.4129C202.37 101.456 198.894 103.555 195.425 105.67C195.126 105.852 194.828 106.034 194.52 106.222C193.006 107.144 191.492 108.067 189.979 108.991C186.971 110.827 183.96 112.657 180.948 114.487C180.501 114.758 180.501 114.758 180.046 115.035C171.783 120.054 163.488 125.017 155.193 129.981C154.364 130.477 153.536 130.974 152.708 131.47C152.304 131.712 151.901 131.953 151.485 132.202C148.483 134.004 145.492 135.822 142.501 137.643C141.891 138.014 141.281 138.386 140.67 138.758C140.216 139.034 140.216 139.034 139.752 139.317C134.635 142.43 129.492 145.498 124.338 148.55C118.84 151.806 113.345 155.066 107.916 158.438C107.22 158.869 106.52 159.294 105.818 159.716C105.25 160.061 105.25 160.061 104.671 160.413C104.326 160.621 103.981 160.829 103.625 161.043C102.718 161.591 102.718 161.591 102.28 162.67C102.842 162.88 102.842 162.88 103.416 163.095C104.88 163.71 106.169 164.424 107.526 165.247C108.038 165.556 108.551 165.865 109.079 166.184C109.627 166.517 110.174 166.85 110.739 167.192C111.307 167.534 111.874 167.875 112.46 168.226C115.203 169.877 117.938 171.539 120.65 173.241C121.543 173.801 122.437 174.356 123.333 174.91C124.465 175.612 125.592 176.321 126.714 177.039C127.482 177.512 127.482 177.512 128.267 177.996C128.715 178.279 129.164 178.562 129.626 178.853C130.902 179.465 130.902 179.465 132.222 178.977C132.648 178.749 133.074 178.521 133.513 178.287C133.912 178.073 134.312 177.86 134.724 177.64C135.141 177.396 135.558 177.153 135.987 176.902C136.468 176.622 136.948 176.342 137.443 176.054C137.96 175.749 138.478 175.445 139.011 175.131C139.556 174.812 140.101 174.492 140.663 174.163C146.493 170.734 152.268 167.215 158.043 163.694C160.617 162.126 163.2 160.573 165.787 159.026C169.525 156.79 173.25 154.531 176.97 152.266C177.274 152.081 177.577 151.896 177.889 151.706C178.193 151.521 178.496 151.337 178.809 151.146C183.892 148.053 189.003 145.008 194.124 141.978C199.124 139.02 204.099 136.031 209.028 132.953C213.233 130.333 217.482 127.788 221.734 125.245C227.308 121.91 232.866 118.55 238.41 115.168C239.514 114.495 240.62 113.826 241.728 113.16C242.848 112.481 243.959 111.785 245.062 111.078C245.612 110.734 246.161 110.39 246.728 110.036C247.217 109.722 247.706 109.409 248.21 109.086C249.595 108.533 249.595 108.533 250.868 108.842C251.307 109.083 251.746 109.325 252.198 109.574C252.717 109.86 253.236 110.145 253.772 110.439C254.347 110.778 254.923 111.116 255.516 111.465C255.832 111.65 256.147 111.836 256.472 112.026C257.139 112.418 257.806 112.811 258.472 113.205C259.467 113.793 260.463 114.378 261.46 114.963C265.138 117.125 268.788 119.328 272.416 121.572C281.358 127.098 290.378 132.494 299.424 137.848C300.082 138.238 300.741 138.628 301.4 139.018C301.721 139.208 302.042 139.398 302.373 139.594C305.041 141.175 307.702 142.769 310.361 144.367C312.181 145.461 314.004 146.551 315.831 147.635C318.4 149.162 320.959 150.707 323.513 152.259C323.929 152.511 324.344 152.762 324.773 153.021C329.286 155.767 333.361 158.325 336.526 162.67C335.881 164.607 335.35 164.771 333.621 165.781C332.856 166.234 332.856 166.234 332.075 166.695C331.235 167.183 331.235 167.183 330.377 167.68C329.486 168.206 328.594 168.732 327.703 169.259C327.081 169.627 326.457 169.994 325.834 170.361C322.793 172.151 319.778 173.982 316.766 175.819C311.067 179.294 305.348 182.736 299.622 186.165C295.229 188.796 290.846 191.443 286.473 194.106C280.618 197.672 274.736 201.189 268.837 204.681C263.911 207.597 259.005 210.543 254.117 213.521C249.462 216.355 244.803 219.181 240.122 221.973C239.503 222.343 238.884 222.714 238.266 223.085C237.413 223.598 237.164 224.115 236.309 224.624C235.581 225.059 235.229 225.482 234.487 225.925C233.446 226.706 232.704 227.072 231.624 227.747C227.448 230.359 195.224 252.796 193.884 249.35C191.57 243.545 171.995 232.927 166.91 229.309C165.57 228.347 214.198 203.273 213.157 202.232C221.607 197.073 230.085 191.963 238.61 186.927C242.26 184.769 245.89 182.582 249.497 180.352C254.246 177.421 259.025 174.54 263.799 171.65C265.084 170.871 266.369 170.092 267.653 169.311C269.462 168.212 271.273 167.116 273.085 166.021C273.64 165.683 274.195 165.345 274.767 164.997C275.276 164.69 275.785 164.383 276.31 164.067C276.757 163.796 277.204 163.526 277.664 163.247C278.746 162.67 278.746 162.67 279.787 162.67C279.787 162.327 279.787 161.983 279.787 161.629C279.42 161.494 279.053 161.36 278.675 161.221C277.059 160.535 275.64 159.708 274.144 158.788C273.71 158.523 273.71 158.523 273.268 158.253C272.649 157.873 272.03 157.493 271.411 157.113C270.44 156.516 269.467 155.922 268.493 155.33C265.391 153.443 262.296 151.545 259.211 149.63C258.196 149.01 257.182 148.389 256.167 147.77C255.704 147.477 255.241 147.185 254.764 146.883C254.116 146.491 254.116 146.491 253.454 146.09C253.084 145.86 252.713 145.63 252.331 145.393C250.688 144.803 249.708 145.03 248.033 145.492C246.458 146.294 246.458 146.294 244.896 147.338C244.298 147.719 243.7 148.1 243.103 148.48C242.799 148.676 242.495 148.871 242.181 149.073C240.73 149.999 239.256 150.888 237.783 151.779C237.2 152.133 236.618 152.487 236.017 152.852C235.414 153.218 234.81 153.585 234.206 153.951C233.735 154.237 233.735 154.237 233.255 154.529C229.196 156.992 225.134 159.448 221.062 161.889C220.645 162.14 220.228 162.39 219.798 162.648C217.918 163.776 216.035 164.899 214.145 166.011C201.643 173.387 177.912 176.727 169.418 188.438C168.418 186.937 180.308 170.301 179.569 168.658C185.543 152.781 215.227 164.599 175.145 185.315C170.339 182.313 221.359 162.553 221.062 161.889C190.338 179.588 180.243 185.659 180.09 185.315C106.518 239.685 173.693 171.368 170.992 164.752C173.583 168.226 169.968 171.519 166.91 175.819C166.474 176.431 166.231 179.728 165.787 180.352C160.335 188.103 161.593 188.466 159.528 197.808C160.525 201.648 143.249 211.058 138.706 213.172C138.271 213.48 139.936 212.48 139.487 212.798C139.487 213.141 140.962 211.98 140.528 212.277C140.528 212.78 134.149 215.76 133.761 216.027C132.683 216.523 132.472 215.766 131.5 215.705C129.933 215.057 128.503 214.216 127.055 213.342C126.728 213.148 126.4 212.953 126.063 212.752C124.988 212.111 123.915 211.466 122.841 210.821C122.089 210.371 121.337 209.922 120.584 209.472C114.879 206.061 109.196 202.615 103.518 199.158C98.2929 195.976 93.0458 192.831 87.797 189.689C86.022 188.625 84.2482 187.56 82.4746 186.493C81.8685 186.129 81.2623 185.765 80.6561 185.401C79.4991 184.705 78.3421 184.01 77.1854 183.314C76.6688 183.004 76.1523 182.693 75.6201 182.374C75.1631 182.099 74.7062 181.824 74.2355 181.541C73.5328 181.127 72.8175 180.734 72.0881 180.369C72.0881 192.05 72.0881 203.731 72.0881 215.766C72.947 216.11 73.8059 216.453 74.6908 216.807C75.5638 217.289 76.4262 217.79 77.2793 218.306C77.7831 218.609 78.2869 218.913 78.806 219.225C79.3483 219.555 79.8906 219.884 80.4494 220.223C81.3036 220.739 81.3036 220.739 82.1751 221.265C84.0199 222.379 85.8623 223.497 87.7045 224.615C88.3271 224.993 88.9496 225.371 89.5722 225.749C92.0577 227.257 94.5427 228.765 97.027 230.276C101.75 233.147 106.486 235.997 111.228 238.836C114.232 240.634 117.236 242.433 120.239 244.234C120.569 244.432 120.899 244.63 121.24 244.834C126.197 247.806 131.144 250.796 136.083 253.799C141.842 257.299 147.6 260.799 153.409 264.216C157.945 266.884 162.467 269.559 166.91 272.379C171.662 275.369 176.519 278.191 181.355 281.043C181.711 281.254 182.067 281.464 182.434 281.681C183.105 282.077 183.777 282.473 184.448 282.868C186.429 284.038 188.349 285.269 190.252 286.561C190.065 286.126 188.96 286.554 189.481 286.041C199.745 278.769 195.446 282.137 201.692 277.98C206.929 274.496 208.46 273.97 213.405 271.627C220.953 267.562 221.337 267.327 228.24 263.137C237.687 257.403 240.994 255.329 250.103 250.904C251.396 249.727 254.711 247.781 256.09 247.26C260.254 244.137 263.715 242.521 268.139 239.973C270.067 238.863 271.986 237.957 273.896 236.818C274.6 236.398 275.304 235.979 276.008 235.56C276.538 235.243 276.538 235.243 277.08 234.921C278.523 234.062 279.969 233.207 281.415 232.352C285.699 229.816 289.959 227.243 294.207 224.647C297.751 222.481 301.307 220.339 304.871 218.206C309.244 215.587 313.61 212.956 317.967 210.31C318.886 209.752 319.805 209.194 320.724 208.637C323.705 206.828 326.679 205.01 329.643 203.175C330.196 202.835 330.748 202.494 331.318 202.144C332.359 201.501 333.398 200.857 334.435 200.209C334.895 199.925 335.355 199.642 335.829 199.351C336.23 199.102 336.63 198.853 337.043 198.596C338.088 198.067 338.088 198.067 339.65 198.067C339.698 210.575 339.735 223.082 339.758 235.589C339.768 241.397 339.783 247.204 339.807 253.012C339.828 258.076 339.841 263.14 339.846 268.204C339.848 270.884 339.855 273.563 339.87 276.243C339.884 278.769 339.888 281.296 339.885 283.822C339.886 284.745 339.89 285.668 339.898 286.591C339.967 294.897 338.725 301.756 332.915 308.058C330.427 310.504 327.47 312.107 324.456 313.824C323.511 314.372 322.566 314.922 321.622 315.472C320.971 315.852 320.319 316.231 319.667 316.609C316.589 318.396 313.548 320.24 310.512 322.096C304.981 325.477 299.42 328.807 293.842 332.109C288.576 335.226 283.323 338.363 278.095 341.544C277.65 341.814 277.65 341.814 277.196 342.09C275.109 343.36 273.023 344.632 270.937 345.903C268.498 347.39 266.058 348.876 263.617 350.36C263.316 350.544 263.014 350.727 262.703 350.916C257.685 353.966 252.639 356.966 247.582 359.951C243.128 362.584 238.702 365.262 234.285 367.955C228.86 371.262 223.401 374.509 217.932 377.742C213.989 380.074 210.061 382.422 206.194 384.879C200.043 388.778 193.983 392.029 186.477 390.419C183.002 389.485 180.126 387.929 177.076 386.05C176.582 385.752 176.087 385.454 175.577 385.147C171.757 382.834 167.963 380.476 164.173 378.114C159.963 375.497 155.698 372.979 151.425 370.466C147.425 368.114 143.451 365.72 139.475 363.329C138.202 362.563 136.928 361.8 135.654 361.038C131.64 358.635 127.633 356.224 123.642 353.785C118.334 350.542 113 347.348 107.648 344.179C102.328 341.029 97.0209 337.859 91.7388 334.646C91.2927 334.375 91.2927 334.375 90.8376 334.098C88.4548 332.648 86.0733 331.196 83.6919 329.744C81.9027 328.654 80.1131 327.563 78.3228 326.474C77.7259 326.111 77.129 325.748 76.5323 325.384C72.8879 323.165 69.229 320.973 65.5507 318.81C64.9883 318.479 64.9883 318.479 64.4146 318.141C62.5926 317.068 60.769 315.998 58.9417 314.934C51.7837 310.74 45.1503 306.443 42.6571 298.118C42.3777 296.785 42.3545 295.565 42.3577 294.203C42.3578 293.65 42.3578 293.098 42.3578 292.529C42.3605 291.937 42.3632 291.344 42.366 290.733C42.3671 289.819 42.3671 289.819 42.3682 288.886C42.3711 286.94 42.3777 284.993 42.3843 283.047C42.3869 281.727 42.3893 280.408 42.3914 279.088C42.3972 275.853 42.4059 272.618 42.4168 269.383C44.6423 270.243 46.6511 271.318 48.6959 272.538C49.0732 272.762 49.4505 272.985 49.8392 273.215C53.81 275.576 57.75 277.987 61.6942 280.392C67.1988 283.746 72.7451 287.025 78.3179 290.265C81.7863 292.285 85.2234 294.347 88.6367 296.459C91.4081 298.173 94.1922 299.866 96.9768 301.559C97.2809 301.744 97.585 301.929 97.8983 302.119C103.472 305.506 109.077 308.837 114.689 312.158C118.751 314.562 122.796 316.983 126.781 319.513C130.28 321.722 133.852 323.809 137.416 325.911C141.981 328.605 146.523 331.333 151.049 334.093C156.415 337.365 161.809 340.588 167.218 343.788C175.851 348.896 175.851 348.896 179.939 351.466C180.251 351.662 180.563 351.857 180.884 352.058C182.4 353.011 183.9 353.986 185.389 354.982C185.698 355.185 186.008 355.387 186.328 355.596C187.16 356.14 187.986 356.694 188.811 357.249C190.204 358.043 190.204 358.043 191.503 357.474C192.745 356.887 193.921 356.265 195.102 355.564C195.751 355.18 195.751 355.18 196.414 354.788C196.882 354.508 197.35 354.228 197.833 353.939C198.333 353.642 198.833 353.345 199.348 353.039C203.976 350.281 208.58 347.483 213.182 344.681C217.674 341.947 222.179 339.235 226.691 336.533C231.413 333.706 236.126 330.864 240.827 328.001C246.331 324.649 251.857 321.337 257.403 318.054C262.669 314.936 267.922 311.799 273.15 308.619C273.446 308.439 273.742 308.259 274.046 308.073C275.832 306.987 277.617 305.9 279.401 304.812C282.196 303.108 284.993 301.405 287.79 299.704C288.092 299.521 288.394 299.337 288.705 299.148C293.357 296.319 298.03 293.529 302.73 290.781C303.377 290.402 303.377 290.402 304.037 290.015C304.408 289.799 304.778 289.583 305.16 289.36C305.548 289.123 305.935 288.887 306.335 288.643C306.866 288.356 307.397 288.07 307.945 287.775C309.594 286.703 309.594 286.703 309.853 284.966C309.856 284.342 309.858 283.718 309.86 283.075C309.866 282.729 309.871 282.384 309.877 282.028C309.892 280.889 309.884 279.752 309.877 278.614C309.883 277.824 309.89 277.033 309.898 276.242C309.917 274.164 309.917 272.087 309.914 270.009C309.913 267.887 309.93 265.766 309.946 263.644C309.974 259.484 309.982 255.324 309.978 251.163C309.618 251.38 309.257 251.596 308.886 251.819C307.514 252.642 306.142 253.465 304.771 254.289C303.898 254.812 303.026 255.335 302.154 255.859C298.751 257.9 295.348 259.941 291.943 261.98C286.61 265.174 281.293 268.394 275.983 271.627C270.654 274.871 265.293 278.057 259.923 281.233C254.502 284.44 249.125 287.711 243.769 291.025C240.472 293.063 237.156 295.061 233.807 297.011C229.963 299.256 226.164 301.577 222.362 303.891C217.396 306.914 212.419 309.917 207.424 312.89C204.79 314.464 202.178 316.063 199.596 317.72C199.096 318.039 198.595 318.358 198.08 318.687C197.138 319.29 196.2 319.899 195.267 320.516C194.641 320.916 194.641 320.916 194.002 321.323C193.641 321.56 193.279 321.797 192.907 322.04C191.45 322.624 190.696 322.425 189.211 321.958C188.055 321.393 188.055 321.393 186.873 320.683C186.426 320.417 185.98 320.151 185.519 319.877C185.041 319.586 184.563 319.296 184.071 318.997C183.568 318.696 183.065 318.395 182.547 318.084C180.948 317.125 179.353 316.159 177.759 315.191C177.252 314.883 176.744 314.575 176.221 314.258C173.712 312.735 171.206 311.208 168.701 309.678C164.694 307.234 160.668 304.824 156.641 302.414C154.537 301.154 152.435 299.893 150.333 298.631C147.532 296.95 144.731 295.27 141.929 293.592C136.54 290.364 131.159 287.124 125.794 283.857C120.233 280.471 114.65 277.124 109.047 273.807C103.747 270.67 98.4631 267.51 93.2028 264.307C92.7539 264.034 92.7539 264.034 92.2959 263.755C91.8496 263.483 91.8496 263.483 91.3942 263.206C82.3533 257.703 73.2659 252.279 64.1575 246.888C60.5709 244.765 56.9881 242.635 53.4134 240.492C53.0277 240.261 52.642 240.03 52.2446 239.792C51.4991 239.345 50.7613 238.884 50.0326 238.409C48.653 237.566 48.653 237.566 46.9696 237.053C44.8372 236.168 43.2271 235.395 41.8963 233.465C40.5751 229.133 41.0745 224.292 41.1805 219.823C41.1892 218.465 41.1951 217.108 41.1983 215.75C41.2098 212.907 41.2461 210.065 41.3 207.222C41.3755 203.229 41.4032 199.238 41.4226 195.245C41.44 192.126 41.4731 189.008 41.5059 185.89C41.515 184.902 41.515 184.902 41.5243 183.894C41.545 182.017 41.5765 180.14 41.6116 178.263C41.6166 177.715 41.6216 177.168 41.6268 176.604C41.7338 171.952 42.6047 167.488 44.8244 163.353C45.0458 162.922 45.2672 162.491 45.4954 162.046C48.6144 157.858 52.9089 155.278 57.3865 152.744C58.726 151.986 60.0584 151.216 61.3913 150.447C62.0705 150.055 62.75 149.663 63.4298 149.272C66.5306 147.487 69.5909 145.638 72.6411 143.768C73.6158 143.171 74.5904 142.575 75.5652 141.978C76.03 141.694 76.4949 141.409 76.9738 141.116C79.1013 139.819 81.239 138.54 83.3774 137.261C87.3197 134.903 91.2476 132.522 95.1719 130.134C99.7179 127.368 104.268 124.612 108.863 121.927C117.014 117.157 125.082 112.244 133.148 107.332C138.182 104.268 143.244 101.253 148.316 98.2524C153.431 95.2264 158.52 92.168 163.562 89.0213C167.1 86.815 170.668 84.6627 174.249 82.5283C174.649 82.2901 175.048 82.0518 175.46 81.8063C175.846 81.5762 176.233 81.346 176.632 81.1089C177.73 80.4413 178.804 79.743 179.88 79.0409C183.419 76.8394 186.551 75.992 190.708 76.0315Z" fill="#FEFDFC"/>
<path d="M469.8 112.8C469.8 115.6 471.2 117.8 474 119.4C476.933 121 481.467 122.733 487.6 124.6C494.933 127 500.933 129.333 505.6 131.6C510.4 133.867 514.533 137.4 518 142.2C521.6 147 523.4 153.267 523.4 161C523.4 185.8 507.267 198.2 475 198.2C469.667 198.2 463.133 197.733 455.4 196.8C447.8 195.867 440.867 194.667 434.6 193.2C434.867 190.4 435.4 186.333 436.2 181C437.133 175.533 438 171.467 438.8 168.8C443.467 169.467 450.467 170.267 459.8 171.2C469.267 172.133 476.4 172.6 481.2 172.6C484 172.6 485.667 172.4 486.2 172C487 171.467 487.6 170.6 488 169.4C488.533 168.067 488.8 166.933 488.8 166C488.8 163.333 487.533 161.333 485 160C482.467 158.533 478.133 156.8 472 154.8C464.667 152.533 458.6 150.2 453.8 147.8C449 145.4 444.8 141.667 441.2 136.6C437.6 131.533 435.8 124.867 435.8 116.6C435.8 110.733 437.133 105 439.8 99.4C442.467 93.6667 445.2 89.8 448 87.8C450.133 86.3333 454.533 84.9333 461.2 83.6C467.867 82.2667 474.133 81.6 480 81.6C494.933 81.6 507.133 83 516.6 85.8C516.467 88.4667 516 92.1333 515.2 96.8C514.533 101.467 513.8 105.733 513 109.6L508.4 109.4C491.067 108.2 480 107.6 475.2 107.6C473.2 107.6 472.067 107.667 471.8 107.8C471.267 108.067 470.8 108.667 470.4 109.6C470 110.533 469.8 111.6 469.8 112.8ZM689.92 82H725.92V169.6H772.52V196H689.92V82ZM844.602 82H882.602L851.802 196H799.602L768.602 82H806.802L825.202 171.2H826.202L844.602 82ZM948.264 198.6C928.397 198.6 913.464 193.933 903.464 184.6C893.597 175.133 888.664 160 888.664 139.2C888.664 118.8 894.131 103.933 905.064 94.6C915.997 85.2667 930.464 80.6 948.464 80.6C986.331 80.6 1005.26 99.4667 1005.26 137.2C1005.26 156.267 1000.6 171.267 991.264 182.2C982.064 193.133 967.731 198.6 948.264 198.6ZM947.464 175C951.197 175 954.331 174.4 956.864 173.2C959.397 171.867 961.397 169.6 962.864 166.4C965.664 160.933 967.064 152 967.064 139.6C967.064 127.467 965.664 118.667 962.864 113.2C960.064 107.6 954.931 104.667 947.464 104.4C944.664 104.4 941.731 104.733 938.664 105.4C935.731 105.933 933.864 106.733 933.064 107.8C931.464 109.667 930.197 113.667 929.264 119.8C928.464 125.8 928.064 132.4 928.064 139.6C928.064 150.8 929.131 159 931.264 164.2C932.731 168.067 934.797 170.867 937.464 172.6C940.131 174.2 943.464 175 947.464 175ZM1124.98 196H1087.18L1080.38 167.2C1080.11 166.133 1079.65 164.333 1078.98 161.8C1078.45 159.133 1077.78 157.2 1076.98 156C1076.18 154.667 1075.05 153.8 1073.58 153.4C1069.85 153.533 1064.38 153.6 1057.18 153.6V196H1021.18V83C1037.31 81.8 1052.38 81.2 1066.38 81.2C1079.05 81.2 1089.31 82.2667 1097.18 84.4C1105.05 86.4 1110.91 89.9333 1114.78 95C1118.78 99.9333 1120.78 106.733 1120.78 115.4C1120.78 123.533 1118.91 129.933 1115.18 134.6C1111.45 139.133 1105.45 141.867 1097.18 142.8V144C1101.85 144.4 1105.71 145.933 1108.78 148.6C1111.98 151.133 1114.11 154.4 1115.18 158.4L1124.98 196ZM1057.18 131C1058.38 131.133 1060.71 131.2 1064.18 131.2C1074.45 131.2 1080.45 130.333 1082.18 128.6C1083.78 127 1084.58 123.267 1084.58 117.4C1084.58 111.933 1083.11 108.2 1080.18 106.2C1077.38 104.2 1072.71 103.2 1066.18 103.2C1064.71 103.2 1061.71 103.333 1057.18 103.6V131ZM1241 196H1203.2L1196.4 167.2C1196.13 166.133 1195.66 164.333 1195 161.8C1194.46 159.133 1193.8 157.2 1193 156C1192.2 154.667 1191.06 153.8 1189.6 153.4C1185.86 153.533 1180.4 153.6 1173.2 153.6V196H1137.2V83C1153.33 81.8 1168.4 81.2 1182.4 81.2C1195.06 81.2 1205.33 82.2667 1213.2 84.4C1221.06 86.4 1226.93 89.9333 1230.8 95C1234.8 99.9333 1236.8 106.733 1236.8 115.4C1236.8 123.533 1234.93 129.933 1231.2 134.6C1227.46 139.133 1221.46 141.867 1213.2 142.8V144C1217.86 144.4 1221.73 145.933 1224.8 148.6C1228 151.133 1230.13 154.4 1231.2 158.4L1241 196ZM1173.2 131C1174.4 131.133 1176.73 131.2 1180.2 131.2C1190.46 131.2 1196.46 130.333 1198.2 128.6C1199.8 127 1200.6 123.267 1200.6 117.4C1200.6 111.933 1199.13 108.2 1196.2 106.2C1193.4 104.2 1188.73 103.2 1182.2 103.2C1180.73 103.2 1177.73 103.333 1173.2 103.6V131Z" fill="white"/>
<path d="M454.453 373V358.234L466.484 355.812V278.547H447.266L446.25 291.516H427.422V259.25H530.859V291.516H511.797L510.859 278.547H491.484V355.812L503.516 358.234V373H454.453ZM536.875 373V358.234L548.906 355.812V276.516L536.875 274.094V259.25H626.406V290.969H607.422L606.562 278.469H573.906V304.562H611.328V323.859H573.906V353.781H608.203L609.062 340.812H627.891V373H536.875ZM694.062 374.641C683.125 374.641 673.49 372.401 665.156 367.922C656.823 363.391 650.339 356.932 645.703 348.547C641.068 340.161 638.75 330.109 638.75 318.391V313.938C638.75 302.948 640.938 293.234 645.312 284.797C649.688 276.307 655.911 269.667 663.984 264.875C672.109 260.031 681.745 257.609 692.891 257.609C700.703 257.609 708.073 258.677 715 260.812C721.979 262.948 728.307 266.411 733.984 271.203V299.562H715.625L713.125 282.531C711.354 281.333 709.479 280.292 707.5 279.406C705.521 278.521 703.385 277.844 701.094 277.375C698.802 276.906 696.328 276.672 693.672 276.672C687.526 276.672 682.214 278.156 677.734 281.125C673.255 284.094 669.792 288.339 667.344 293.859C664.896 299.38 663.672 306.021 663.672 313.781V318.391C663.672 325.891 664.922 332.453 667.422 338.078C669.974 343.651 673.568 347.974 678.203 351.047C682.839 354.12 688.229 355.656 694.375 355.656C697.604 355.656 700.833 355.318 704.062 354.641C707.292 353.911 710.312 352.974 713.125 351.828L715.703 335.812H734.062V363.625C729.583 366.646 723.932 369.25 717.109 371.438C710.339 373.573 702.656 374.641 694.062 374.641ZM742.969 373V358.234L755 355.812V276.516L742.969 274.094V259.25H791.953V274.094L780 276.516V307.375H823.984V276.516L812.031 274.094V259.25H823.984H848.906H860.938V274.094L848.906 276.516V355.812L860.938 358.234V373H812.031V358.234L823.984 355.812V326.672H780V355.812L791.953 358.234V373H742.969Z" fill="white"/>
</svg>
