<svg width="1270" height="432" viewBox="0 0 1270 432" fill="none" xmlns="http://www.w3.org/2000/svg">
<path d="M180.31 41.0379C180.773 41.0254 181.236 41.0129 181.714 41C188.186 41.0056 193.347 44.2645 198.649 47.6567C199.213 48.0119 199.777 48.367 200.359 48.7329C201.507 49.4562 202.655 50.1815 203.801 50.9089C205.85 52.2073 207.908 53.4909 209.967 54.7733C211.812 55.9228 213.655 57.0769 215.498 58.231C213.64 60.2469 211.76 61.5759 209.385 62.9381C209.033 63.1419 208.681 63.3456 208.319 63.5556C207.559 63.9951 206.798 64.433 206.036 64.8694C203.974 66.051 201.92 67.2464 199.866 68.4407C199.232 68.8086 199.232 68.8086 198.585 69.1841C194.356 71.6435 190.17 74.1707 185.992 76.7165C185.632 76.9357 185.272 77.1549 184.901 77.3807C183.078 78.4909 181.255 79.6021 179.433 80.7141C175.81 82.9244 172.183 85.1276 168.555 87.3301C168.017 87.6565 168.017 87.6565 167.469 87.9896C157.517 94.0311 147.526 100.005 137.535 105.982C136.538 106.579 135.54 107.176 134.543 107.774C134.057 108.065 133.571 108.356 133.07 108.656C129.455 110.824 125.851 113.013 122.25 115.205C121.515 115.652 120.779 116.099 120.044 116.547C119.497 116.88 119.497 116.88 118.938 117.219C112.775 120.967 106.581 124.661 100.374 128.335C93.7513 132.254 87.1332 136.179 80.595 140.238C79.756 140.756 78.9129 141.268 78.0676 141.776C77.3839 142.192 77.3839 142.192 76.6864 142.615C76.2706 142.865 75.8548 143.115 75.4263 143.373C74.3337 144.033 74.3337 144.033 73.8063 145.332C74.4837 145.585 74.4837 145.585 75.1747 145.843C76.9376 146.584 78.4904 147.444 80.1248 148.434C80.7421 148.806 81.3593 149.178 81.9953 149.562C82.655 149.963 83.3146 150.363 83.9943 150.776C84.6782 151.187 85.3622 151.597 86.0668 152.021C89.3717 154.007 92.6654 156.009 95.9321 158.058C97.0069 158.731 98.0845 159.399 99.1631 160.066C100.526 160.911 101.884 161.765 103.235 162.629C104.16 163.199 104.16 163.199 105.105 163.781C105.646 164.122 106.186 164.462 106.743 164.813C108.279 165.55 108.279 165.55 109.869 164.962C110.382 164.688 110.895 164.414 111.424 164.131C111.905 163.874 112.386 163.617 112.882 163.353C113.384 163.059 113.887 162.766 114.404 162.464C114.983 162.127 115.561 161.79 116.157 161.443C116.78 161.077 117.404 160.71 118.046 160.332C118.702 159.948 119.359 159.563 120.035 159.167C127.057 155.04 134.013 150.803 140.969 146.564C144.068 144.677 147.179 142.808 150.295 140.946C154.798 138.254 159.283 135.535 163.765 132.808C164.13 132.585 164.495 132.363 164.872 132.134C165.237 131.912 165.602 131.689 165.979 131.46C172.101 127.736 178.257 124.071 184.425 120.424C190.447 116.863 196.439 113.264 202.375 109.559C207.44 106.405 212.558 103.342 217.679 100.28C224.392 96.2662 231.086 92.2213 237.764 88.1494C239.093 87.3401 240.425 86.5345 241.76 85.7332C243.109 84.9148 244.447 84.0777 245.775 83.2261C246.437 82.8122 247.099 82.3983 247.781 81.9719C248.371 81.5944 248.96 81.2169 249.567 80.828C251.235 80.163 251.235 80.163 252.768 80.5343C253.296 80.8253 253.825 81.1164 254.369 81.4163C254.995 81.7597 255.62 82.1031 256.265 82.4569C256.958 82.8647 257.652 83.2725 258.366 83.6927C258.746 83.9155 259.126 84.1382 259.517 84.3678C260.321 84.8397 261.124 85.3128 261.926 85.7867C263.124 86.4944 264.324 87.1989 265.525 87.9028C269.955 90.5056 274.35 93.1576 278.721 95.8587C289.491 102.511 300.355 109.007 311.249 115.452C312.042 115.921 312.836 116.391 313.629 116.86C314.016 117.089 314.402 117.317 314.801 117.553C318.015 119.457 321.22 121.376 324.422 123.299C326.615 124.616 328.81 125.928 331.01 127.233C334.105 129.071 337.186 130.931 340.262 132.8C340.763 133.102 341.264 133.405 341.78 133.717C347.216 137.022 352.124 140.101 355.936 145.332C355.159 147.663 354.52 147.861 352.436 149.077C351.515 149.622 351.515 149.622 350.575 150.177C349.563 150.764 349.563 150.764 348.53 151.364C347.456 151.997 346.383 152.63 345.309 153.264C344.559 153.707 343.809 154.149 343.058 154.59C339.396 156.745 335.765 158.949 332.136 161.161C325.272 165.344 318.385 169.487 311.487 173.615C306.197 176.782 300.918 179.968 295.65 183.175C288.599 187.467 281.515 191.701 274.41 195.904C268.477 199.414 262.569 202.96 256.681 206.546C251.074 209.957 245.463 213.359 239.826 216.72C239.08 217.165 238.334 217.612 237.59 218.059C236.563 218.676 236.263 219.299 235.233 219.911C234.356 220.435 233.933 220.944 233.038 221.478C231.784 222.418 230.891 222.858 229.59 223.671C224.56 226.815 185.749 253.824 184.136 249.676C181.349 242.688 157.772 229.906 151.647 225.551C150.034 224.393 208.602 194.209 207.348 192.956C217.526 186.746 227.736 180.594 238.004 174.532C242.401 171.934 246.772 169.302 251.117 166.617C256.836 163.089 262.593 159.621 268.342 156.142C269.89 155.205 271.437 154.266 272.984 153.327C275.163 152.003 277.344 150.685 279.526 149.366C280.195 148.959 280.863 148.553 281.552 148.134C282.165 147.764 282.778 147.395 283.41 147.014C283.949 146.688 284.487 146.362 285.042 146.026C286.344 145.332 286.344 145.332 287.598 145.332C287.598 144.919 287.598 144.505 287.598 144.079C287.156 143.917 286.715 143.755 286.259 143.588C284.313 142.762 282.603 141.766 280.802 140.659C280.28 140.34 280.28 140.34 279.747 140.014C279.001 139.558 278.256 139.1 277.511 138.642C276.341 137.924 275.169 137.209 273.996 136.496C270.259 134.225 266.532 131.94 262.816 129.635C261.594 128.888 260.372 128.141 259.15 127.395C258.592 127.043 258.035 126.691 257.46 126.328C256.679 125.856 256.679 125.856 255.883 125.373C255.436 125.096 254.99 124.82 254.53 124.535C252.551 123.824 251.371 124.097 249.354 124.654C247.457 125.619 247.457 125.619 245.575 126.876C244.855 127.335 244.135 127.793 243.415 128.251C243.049 128.486 242.683 128.721 242.306 128.964C240.557 130.079 238.782 131.149 237.008 132.222C236.306 132.648 235.605 133.074 234.882 133.513C234.154 133.954 233.427 134.395 232.7 134.836C232.133 135.18 232.133 135.18 231.554 135.532C226.666 138.497 221.773 141.453 216.87 144.392C216.367 144.694 215.865 144.995 215.347 145.305C213.082 146.663 210.814 148.015 208.538 149.354C193.481 158.233 164.899 162.254 154.669 176.352C153.464 174.544 167.784 154.518 166.895 152.54C174.09 133.428 209.841 147.654 161.566 172.592C155.778 168.978 217.226 145.192 216.87 144.392C179.865 165.698 167.707 173.005 167.522 172.592C78.9113 238.041 159.818 155.802 156.564 147.839C159.685 152.021 155.331 155.985 151.647 161.161C151.122 161.897 150.831 165.866 150.295 166.617C143.728 175.947 145.243 176.385 142.757 187.631C143.957 192.253 123.15 203.581 117.679 206.126C117.154 206.497 119.159 205.293 118.619 205.675C118.619 206.088 120.395 204.691 119.873 205.048C119.873 205.654 112.19 209.241 111.723 209.563C110.424 210.16 110.17 209.248 109 209.175C107.113 208.395 105.389 207.383 103.645 206.331C103.251 206.096 102.858 205.862 102.452 205.62C101.156 204.848 99.8636 204.072 98.571 203.295C97.665 202.754 96.7588 202.213 95.8524 201.672C88.9812 197.565 82.1356 193.417 75.2978 189.255C69.0044 185.425 62.6847 181.64 56.363 177.857C54.2251 176.576 52.0887 175.294 49.9526 174.01C49.2225 173.572 48.4925 173.133 47.7624 172.695C46.3688 171.858 44.9754 171.021 43.5822 170.183C42.96 169.809 42.3379 169.436 41.6969 169.051C41.1466 168.72 40.5962 168.39 40.0292 168.049C39.183 167.551 38.3215 167.077 37.4429 166.638C37.4429 180.699 37.4429 194.761 37.4429 209.248C38.4774 209.662 39.5118 210.075 40.5777 210.502C41.6291 211.081 42.6678 211.684 43.6953 212.306C44.3021 212.671 44.9089 213.036 45.5341 213.412C46.1872 213.809 46.8404 214.205 47.5134 214.614C48.5422 215.235 48.5422 215.235 49.5918 215.868C51.8138 217.209 54.0328 218.555 56.2516 219.901C57.0014 220.356 57.7512 220.81 58.501 221.265C61.4946 223.08 64.4876 224.897 67.4797 226.715C73.1686 230.171 78.8717 233.602 84.5839 237.019C88.2022 239.184 91.8196 241.35 95.4363 243.517C95.8341 243.755 96.2319 243.994 96.6418 244.239C102.612 247.818 108.57 251.417 114.519 255.031C121.455 259.245 128.391 263.458 135.388 267.571C140.85 270.783 146.296 274.004 151.647 277.398C157.371 280.998 163.221 284.395 169.046 287.828C169.475 288.081 169.904 288.335 170.346 288.596C171.154 289.073 171.962 289.549 172.771 290.024C175.157 291.433 177.47 292.915 179.762 294.47C179.535 293.947 178.206 294.462 178.832 293.844C191.195 285.09 186.017 289.145 193.54 284.141C199.847 279.946 201.691 279.313 207.647 276.493C216.738 271.599 217.2 271.316 225.515 266.273C236.893 259.371 240.875 256.873 251.847 251.547C253.404 250.129 257.397 247.787 259.057 247.16C264.073 243.401 268.241 241.456 273.57 238.388C275.891 237.051 278.202 235.961 280.503 234.59C281.351 234.085 282.199 233.58 283.046 233.075C283.686 232.695 283.686 232.695 284.338 232.306C286.076 231.272 287.818 230.243 289.559 229.214C294.719 226.161 299.85 223.064 304.966 219.939C309.234 217.332 313.518 214.753 317.809 212.186C323.077 209.033 328.335 205.866 333.582 202.68C334.689 202.008 335.796 201.337 336.904 200.666C340.493 198.488 344.075 196.3 347.646 194.092C348.312 193.682 348.977 193.272 349.663 192.85C350.916 192.077 352.168 191.3 353.418 190.52C353.972 190.179 354.525 189.839 355.096 189.487C355.579 189.188 356.061 188.888 356.558 188.579C357.817 187.943 357.817 187.943 359.698 187.943C359.757 202.999 359.801 218.055 359.828 233.111C359.841 240.102 359.858 247.093 359.887 254.084C359.912 260.181 359.928 266.277 359.934 272.373C359.937 275.598 359.945 278.824 359.963 282.049C359.98 285.091 359.985 288.132 359.982 291.173C359.982 292.284 359.987 293.395 359.997 294.506C360.08 304.505 358.584 312.762 351.587 320.347C348.59 323.292 345.028 325.222 341.399 327.289C340.26 327.949 339.122 328.611 337.985 329.273C337.201 329.73 336.416 330.186 335.63 330.641C331.923 332.792 328.261 335.012 324.604 337.247C317.942 341.317 311.245 345.325 304.526 349.3C298.184 353.052 291.857 356.829 285.56 360.657C285.024 360.983 285.024 360.983 284.477 361.316C281.964 362.844 279.452 364.374 276.94 365.905C274.002 367.695 271.063 369.484 268.123 371.271C267.76 371.492 267.397 371.712 267.022 371.94C260.979 375.611 254.901 379.223 248.81 382.816C243.446 385.986 238.116 389.209 232.795 392.451C226.261 396.432 219.686 400.341 213.099 404.233C208.35 407.039 203.619 409.866 198.962 412.824C191.554 417.517 184.254 421.431 175.215 419.492C171.029 418.368 167.565 416.495 163.892 414.234C163.296 413.875 162.701 413.516 162.087 413.146C157.485 410.362 152.916 407.524 148.351 404.681C143.281 401.529 138.144 398.498 132.997 395.474C128.18 392.643 123.394 389.761 118.605 386.882C117.072 385.961 115.537 385.042 114.002 384.124C109.169 381.232 104.342 378.329 99.535 375.393C93.1427 371.489 86.7178 367.644 80.2718 363.829C73.8644 360.037 67.4723 356.222 61.1105 352.354C60.5732 352.028 60.5732 352.028 60.0251 351.695C57.1552 349.949 54.2869 348.202 51.4187 346.454C49.2637 345.14 47.1083 343.828 44.9521 342.517C44.2332 342.08 43.5143 341.642 42.7956 341.205C38.4063 338.533 33.9994 335.894 29.5692 333.291C28.8919 332.892 28.8919 332.892 28.2008 332.486C26.0065 331.194 23.81 329.906 21.6092 328.625C12.988 323.577 4.99871 318.403 1.99589 308.382C1.65929 306.777 1.63137 305.309 1.63527 303.669C1.63532 303.004 1.63536 302.339 1.63541 301.655C1.63864 300.941 1.64189 300.228 1.64522 299.492C1.64655 298.392 1.64656 298.392 1.64792 297.269C1.65143 294.926 1.65929 292.583 1.66726 290.24C1.67041 288.651 1.67327 287.063 1.67583 285.474C1.68275 281.58 1.69324 277.685 1.70645 273.791C4.38678 274.826 6.80632 276.12 9.2691 277.59C9.7235 277.859 10.1779 278.128 10.6461 278.405C15.4285 281.246 20.174 284.149 24.9243 287.044C31.5542 291.082 38.2343 295.028 44.9462 298.928C49.1236 301.36 53.2632 303.843 57.3743 306.385C60.7122 308.448 64.0654 310.487 67.4192 312.524C67.7855 312.747 68.1518 312.97 68.5291 313.199C75.2416 317.276 81.9925 321.286 88.7525 325.283C93.6443 328.177 98.5168 331.091 103.316 334.137C107.53 336.796 111.832 339.308 116.125 341.839C121.623 345.081 127.093 348.366 132.544 351.689C139.007 355.628 145.504 359.507 152.019 363.359C162.416 369.509 162.416 369.509 167.34 372.602C167.716 372.837 168.091 373.072 168.478 373.314C170.304 374.462 172.111 375.635 173.904 376.834C174.277 377.078 174.65 377.322 175.035 377.573C176.037 378.228 177.032 378.896 178.025 379.564C179.703 380.519 179.703 380.519 181.269 379.834C182.764 379.127 184.181 378.379 185.603 377.534C186.385 377.072 186.385 377.072 187.182 376.6C187.746 376.263 188.311 375.926 188.892 375.579C189.494 375.221 190.096 374.863 190.716 374.495C196.291 371.175 201.836 367.806 207.379 364.434C212.789 361.143 218.215 357.878 223.649 354.626C229.336 351.222 235.013 347.802 240.674 344.355C247.303 340.319 253.96 336.333 260.639 332.381C266.981 328.628 273.308 324.851 279.604 321.023C279.961 320.806 280.317 320.59 280.684 320.366C282.835 319.059 284.984 317.749 287.134 316.44C290.5 314.389 293.868 312.339 297.237 310.292C297.601 310.071 297.965 309.85 298.34 309.622C303.942 306.217 309.571 302.859 315.232 299.551C316.011 299.094 316.011 299.094 316.805 298.628C317.252 298.368 317.698 298.108 318.158 297.839C318.625 297.555 319.092 297.27 319.573 296.976C320.213 296.631 320.852 296.286 321.512 295.931C323.498 294.641 323.498 294.641 323.811 292.551C323.813 291.799 323.816 291.048 323.819 290.274C323.826 289.858 323.832 289.442 323.839 289.013C323.857 287.643 323.848 286.274 323.839 284.904C323.846 283.952 323.855 283 323.865 282.048C323.888 279.547 323.888 277.046 323.883 274.545C323.883 271.991 323.903 269.437 323.922 266.883C323.956 261.875 323.966 256.867 323.961 251.859C323.527 252.119 323.093 252.38 322.645 252.648C320.993 253.639 319.341 254.63 317.689 255.621C316.638 256.251 315.588 256.881 314.538 257.511C310.439 259.969 306.34 262.425 302.24 264.879C295.816 268.724 289.412 272.601 283.017 276.493C276.599 280.397 270.142 284.234 263.674 288.056C257.145 291.917 250.668 295.854 244.218 299.844C240.246 302.297 236.253 304.702 232.219 307.05C227.589 309.752 223.014 312.546 218.435 315.332C212.454 318.971 206.46 322.585 200.443 326.165C197.27 328.059 194.125 329.984 191.015 331.979C190.413 332.363 189.81 332.747 189.189 333.142C188.055 333.868 186.925 334.602 185.801 335.344C185.047 335.826 185.047 335.826 184.278 336.317C183.842 336.601 183.407 336.886 182.958 337.179C181.205 337.883 180.295 337.642 178.508 337.08C177.115 336.401 177.115 336.401 175.691 335.546C175.153 335.225 174.616 334.905 174.061 334.575C173.486 334.226 172.91 333.876 172.317 333.516C171.711 333.154 171.105 332.791 170.481 332.417C168.556 331.262 166.635 330.099 164.715 328.934C164.103 328.564 163.492 328.193 162.862 327.811C159.84 325.978 156.821 324.14 153.804 322.298C148.979 319.356 144.129 316.454 139.279 313.553C136.746 312.037 134.214 310.518 131.682 309C128.309 306.976 124.935 304.954 121.56 302.934C115.07 299.048 108.589 295.148 102.127 291.215C95.4294 287.139 88.7051 283.11 81.9567 279.117C75.5738 275.341 69.2094 271.537 62.8738 267.681C62.3331 267.352 62.3331 267.352 61.7815 267.017C61.2439 266.69 61.2439 266.69 60.6955 266.356C49.8065 259.731 38.8615 253.202 27.8912 246.712C23.5715 244.156 19.2563 241.593 14.9509 239.013C14.4863 238.735 14.0218 238.457 13.5431 238.171C12.6453 237.632 11.7566 237.077 10.879 236.506C9.21736 235.491 9.21737 235.491 7.18984 234.873C4.62162 233.808 2.68234 232.877 1.07949 230.554C-0.511768 225.34 0.0897575 219.511 0.217429 214.132C0.227868 212.497 0.23496 210.863 0.238858 209.229C0.252686 205.806 0.296463 202.385 0.36131 198.963C0.452278 194.157 0.485619 189.352 0.509037 184.545C0.529951 180.791 0.569792 177.037 0.609276 173.283C0.620281 172.094 0.620281 172.094 0.631509 170.881C0.656419 168.621 0.694334 166.362 0.736626 164.102C0.742669 163.443 0.748711 162.785 0.754937 162.106C0.883768 156.506 1.93268 151.132 4.60612 146.155C4.87282 145.635 5.13952 145.116 5.4143 144.581C9.17086 139.54 14.3432 136.433 19.7362 133.384C21.3495 132.471 22.9542 131.544 24.5595 130.618C25.3776 130.146 26.196 129.674 27.0148 129.204C30.7494 127.054 34.4353 124.829 38.109 122.578C39.2829 121.86 40.4568 121.142 41.6308 120.424C42.1906 120.081 42.7505 119.739 43.3273 119.386C45.8897 117.825 48.4644 116.284 51.04 114.745C55.7881 111.906 60.519 109.04 65.2454 106.165C70.7207 102.836 76.2013 99.519 81.7348 96.2863C91.5528 90.5448 101.269 84.6303 110.984 78.717C117.047 75.0285 123.144 71.3991 129.253 67.7871C135.413 64.1445 141.543 60.4628 147.616 56.6749C151.876 54.0189 156.174 51.428 160.487 48.8587C160.968 48.5719 161.449 48.2851 161.945 47.9896C162.411 47.7125 162.877 47.4355 163.357 47.15C164.68 46.3464 165.973 45.5058 167.269 44.6606C171.531 42.0104 175.304 40.9904 180.31 41.0379Z" fill="url(#paint0_linear_6_42)"/>
<path d="M465.8 112.8C465.8 115.6 467.2 117.8 470 119.4C472.933 121 477.467 122.733 483.6 124.6C490.933 127 496.933 129.333 501.6 131.6C506.4 133.867 510.533 137.4 514 142.2C517.6 147 519.4 153.267 519.4 161C519.4 185.8 503.267 198.2 471 198.2C465.667 198.2 459.133 197.733 451.4 196.8C443.8 195.867 436.867 194.667 430.6 193.2C430.867 190.4 431.4 186.333 432.2 181C433.133 175.533 434 171.467 434.8 168.8C439.467 169.467 446.467 170.267 455.8 171.2C465.267 172.133 472.4 172.6 477.2 172.6C480 172.6 481.667 172.4 482.2 172C483 171.467 483.6 170.6 484 169.4C484.533 168.067 484.8 166.933 484.8 166C484.8 163.333 483.533 161.333 481 160C478.467 158.533 474.133 156.8 468 154.8C460.667 152.533 454.6 150.2 449.8 147.8C445 145.4 440.8 141.667 437.2 136.6C433.6 131.533 431.8 124.867 431.8 116.6C431.8 110.733 433.133 105 435.8 99.4C438.467 93.6667 441.2 89.8 444 87.8C446.133 86.3333 450.533 84.9333 457.2 83.6C463.867 82.2667 470.133 81.6 476 81.6C490.933 81.6 503.133 83 512.6 85.8C512.467 88.4667 512 92.1333 511.2 96.8C510.533 101.467 509.8 105.733 509 109.6L504.4 109.4C487.067 108.2 476 107.6 471.2 107.6C469.2 107.6 468.067 107.667 467.8 107.8C467.267 108.067 466.8 108.667 466.4 109.6C466 110.533 465.8 111.6 465.8 112.8ZM715.998 82H751.998V169.6H798.598V196H715.998V82ZM870.68 82H908.68L877.88 196H825.68L794.68 82H832.88L851.28 171.2H852.28L870.68 82ZM974.342 198.6C954.476 198.6 939.542 193.933 929.542 184.6C919.676 175.133 914.742 160 914.742 139.2C914.742 118.8 920.209 103.933 931.142 94.6C942.076 85.2667 956.542 80.6 974.542 80.6C1012.41 80.6 1031.34 99.4667 1031.34 137.2C1031.34 156.267 1026.68 171.267 1017.34 182.2C1008.14 193.133 993.809 198.6 974.342 198.6ZM973.542 175C977.276 175 980.409 174.4 982.942 173.2C985.476 171.867 987.476 169.6 988.942 166.4C991.742 160.933 993.142 152 993.142 139.6C993.142 127.467 991.742 118.667 988.942 113.2C986.142 107.6 981.009 104.667 973.542 104.4C970.742 104.4 967.809 104.733 964.742 105.4C961.809 105.933 959.942 106.733 959.142 107.8C957.542 109.667 956.276 113.667 955.342 119.8C954.542 125.8 954.142 132.4 954.142 139.6C954.142 150.8 955.209 159 957.342 164.2C958.809 168.067 960.876 170.867 963.542 172.6C966.209 174.2 969.542 175 973.542 175ZM1151.06 196H1113.26L1106.46 167.2C1106.19 166.133 1105.72 164.333 1105.06 161.8C1104.52 159.133 1103.86 157.2 1103.06 156C1102.26 154.667 1101.12 153.8 1099.66 153.4C1095.92 153.533 1090.46 153.6 1083.26 153.6V196H1047.26V83C1063.39 81.8 1078.46 81.2 1092.46 81.2C1105.12 81.2 1115.39 82.2667 1123.26 84.4C1131.12 86.4 1136.99 89.9333 1140.86 95C1144.86 99.9333 1146.86 106.733 1146.86 115.4C1146.86 123.533 1144.99 129.933 1141.26 134.6C1137.52 139.133 1131.52 141.867 1123.26 142.8V144C1127.92 144.4 1131.79 145.933 1134.86 148.6C1138.06 151.133 1140.19 154.4 1141.26 158.4L1151.06 196ZM1083.26 131C1084.46 131.133 1086.79 131.2 1090.26 131.2C1100.52 131.2 1106.52 130.333 1108.26 128.6C1109.86 127 1110.66 123.267 1110.66 117.4C1110.66 111.933 1109.19 108.2 1106.26 106.2C1103.46 104.2 1098.79 103.2 1092.26 103.2C1090.79 103.2 1087.79 103.333 1083.26 103.6V131ZM1267.07 196H1229.27L1222.47 167.2C1222.21 166.133 1221.74 164.333 1221.07 161.8C1220.54 159.133 1219.87 157.2 1219.07 156C1218.27 154.667 1217.14 153.8 1215.67 153.4C1211.94 153.533 1206.47 153.6 1199.27 153.6V196H1163.27V83C1179.41 81.8 1194.47 81.2 1208.47 81.2C1221.14 81.2 1231.41 82.2667 1239.27 84.4C1247.14 86.4 1253.01 89.9333 1256.87 95C1260.87 99.9333 1262.87 106.733 1262.87 115.4C1262.87 123.533 1261.01 129.933 1257.27 134.6C1253.54 139.133 1247.54 141.867 1239.27 142.8V144C1243.94 144.4 1247.81 145.933 1250.87 148.6C1254.07 151.133 1256.21 154.4 1257.27 158.4L1267.07 196ZM1199.27 131C1200.47 131.133 1202.81 131.2 1206.27 131.2C1216.54 131.2 1222.54 130.333 1224.27 128.6C1225.87 127 1226.67 123.267 1226.67 117.4C1226.67 111.933 1225.21 108.2 1222.27 106.2C1219.47 104.2 1214.81 103.2 1208.27 103.2C1206.81 103.2 1203.81 103.333 1199.27 103.6V131Z" fill="black"/>
<path d="M490.8 367H454.8V278H422.6V253H523V278H490.8V367ZM533.516 253H616.516V277H569.516V297.8H609.116V319.4H569.516V342.6H616.316V367H533.516V253ZM718.642 363.2C713.709 365.333 707.976 366.867 701.442 367.8C694.909 368.733 688.842 369.2 683.242 369.2C665.109 369.2 650.909 364.467 640.642 355C630.376 345.533 625.242 331 625.242 311.4C625.242 291.4 630.642 276.467 641.442 266.6C652.242 256.6 667.442 251.6 687.042 251.6C696.376 251.6 706.109 252.867 716.242 255.4C716.242 258.067 715.976 262.067 715.442 267.4C714.909 272.6 714.376 276.267 713.842 278.4H701.242C692.042 278.4 684.776 278.6 679.442 279C674.242 279.267 671.109 279.867 670.042 280.8C668.042 282.667 666.509 286.467 665.442 292.2C664.376 297.8 663.842 303.2 663.842 308.4C663.842 317.467 664.976 324.467 667.242 329.4C669.509 334.2 672.376 337.4 675.842 339C679.176 340.6 684.709 341.4 692.442 341.4C698.576 341.4 706.576 340.867 716.442 339.8L718.642 363.2ZM731.981 253H768.181V294.8H799.181V253H835.381V367H799.181V317.8H768.181V367H731.981V253Z" fill="black"/>
<path d="M668.101 169.99L660.982 164.028L676.881 145.044C681.272 139.8 680.582 131.995 675.338 127.603L656.354 111.705L662.316 104.586C667.801 98.0362 666.937 88.2691 660.387 82.7841C653.838 77.2992 644.071 78.1631 638.586 84.7126L632.624 91.8316L613.64 75.9332C608.396 71.5413 600.638 72.2714 596.246 77.5158L581.119 95.5308L588.214 101.473C595.286 107.395 596.219 117.947 590.297 125.018C584.375 132.09 573.823 133.023 566.751 127.101L559.656 121.159L544.529 139.174C540.137 144.418 540.827 152.223 546.072 156.615L564.106 171.719L570.068 164.6C575.991 157.528 586.542 156.595 593.614 162.517C600.686 168.439 601.619 178.991 595.697 186.063L589.735 193.182L607.769 208.285C613.014 212.677 620.819 211.987 625.211 206.742L641.109 187.758L648.228 193.72C654.778 199.205 664.545 198.341 670.029 191.792C675.514 185.242 674.651 175.475 668.101 169.99Z" fill="url(#paint1_linear_6_42)"/>
<defs>
<linearGradient id="paint0_linear_6_42" x1="180" y1="41" x2="180" y2="420" gradientUnits="userSpaceOnUse">
<stop stop-color="#3B82F6"/>
<stop offset="1" stop-color="#8B5CF6"/>
</linearGradient>
<linearGradient id="paint1_linear_6_42" x1="580.996" y1="111.833" x2="657.371" y2="197.417" gradientUnits="userSpaceOnUse">
<stop stop-color="#3B82F6"/>
<stop offset="1" stop-color="#8B5CF6"/>
</linearGradient>
</defs>
</svg>
