<svg width="100%" height="100%" viewBox="0 0 600 250" preserveAspectRatio="xMidYMid meet" xmlns="http://www.w3.org/2000/svg">
  <defs>
    <linearGradient id="bgGrad" x1="0%" y1="0%" x2="100%" y2="100%">
      <stop offset="0%" style="stop-color:#0A0F1E" />
      <stop offset="100%" style="stop-color:#1a1f35" />
    </linearGradient>

    <linearGradient id="screenGlow" x1="0%" y1="0%" x2="0%" y2="100%">
      <stop offset="0%" style="stop-color:#60a5fa;stop-opacity:0.3" />
      <stop offset="100%" style="stop-color:#3b82f6;stop-opacity:0.1" />
    </linearGradient>

    <linearGradient id="chartGrad" x1="0%" y1="100%" x2="0%" y2="0%">
      <stop offset="0%" style="stop-color:#22c55e;stop-opacity:0.6" />
      <stop offset="100%" style="stop-color:#10b981;stop-opacity:0.1" />
    </linearGradient>

    <linearGradient id="rankGrad" x1="0%" y1="0%" x2="100%" y2="0%">
      <stop offset="0%" style="stop-color:#fbbf24" />
      <stop offset="50%" style="stop-color:#f59e0b" />
      <stop offset="100%" style="stop-color:#fbbf24" />
    </linearGradient>

    <filter id="glow">
      <feGaussianBlur stdDeviation="4" result="coloredBlur"/>
      <feMerge>
        <feMergeNode in="coloredBlur"/>
        <feMergeNode in="SourceGraphic"/>
      </feMerge>
    </filter>

    <filter id="shadow">
      <feDropShadow dx="0" dy="2" stdDeviation="4" flood-opacity="0.3"/>
    </filter>
  </defs>

  <!-- Background -->
  <rect width="600" height="250" fill="url(#bgGrad)" />

  <!-- Desktop Version (visible on wider screens) -->
  <g class="desktop-view">
    <!-- Left Section - Search Results Mockup -->
    <g transform="translate(30, 20)">
      <!-- Browser Window -->
      <rect x="0" y="0" width="260" height="210" rx="8" fill="#1e293b" stroke="#334155" stroke-width="2" filter="url(#shadow)"/>
      
      <!-- Browser Header -->
      <rect x="0" y="0" width="260" height="35" rx="8" fill="#0f172a"/>
      <circle cx="15" cy="17" r="4" fill="#ef4444"/>
      <circle cx="28" cy="17" r="4" fill="#fbbf24"/>
      <circle cx="41" cy="17" r="4" fill="#22c55e"/>
      
      <!-- Search Bar -->
      <rect x="60" y="10" width="185" height="14" rx="7" fill="#1e293b" stroke="#475569" stroke-width="1"/>
      <circle cx="72" cy="17" r="4" fill="#4285f4" opacity="0.4"/>
      <text x="82" y="19.5" fill="#64748b" font-size="8" font-family="Arial, sans-serif">best products...</text>
      
      <!-- Result 1 - YOUR SITE -->
      <g transform="translate(15, 50)">
        <rect x="0" y="0" width="230" height="45" rx="6" fill="url(#screenGlow)" stroke="#fbbf24" stroke-width="2" filter="url(#glow)"/>
        <circle cx="18" cy="22" r="10" fill="url(#rankGrad)"/>
        <text x="18" y="26" fill="#0A0F1E" font-size="10" font-weight="bold" text-anchor="middle">1</text>
        <text x="35" y="15" fill="#fbbf24" font-size="10" font-weight="bold" font-family="Arial, sans-serif">Your Business Site</text>
        <rect x="35" y="20" width="180" height="4" rx="2" fill="#60a5fa" opacity="0.5"/>
        <rect x="35" y="28" width="140" height="4" rx="2" fill="#8b5cf6" opacity="0.4"/>
        <rect x="35" y="36" width="160" height="4" rx="2" fill="#ec4899" opacity="0.3"/>
        <g transform="translate(205, 15)">
          <path d="M 0 8 L 0 0 L -4 4 M 0 0 L 4 4" stroke="#22c55e" stroke-width="1.5" fill="none"/>
          <text x="0" y="18" fill="#22c55e" font-size="7" text-anchor="middle" font-weight="bold">+350%</text>
        </g>
      </g>
      
      <!-- Result 2 -->
      <g transform="translate(15, 105)">
        <rect x="0" y="0" width="230" height="35" rx="5" fill="#0f172a" stroke="#334155" stroke-width="1" opacity="0.6"/>
        <circle cx="15" cy="17" r="8" fill="#94a3b8" opacity="0.3"/>
        <text x="15" y="21" fill="#64748b" font-size="8" font-weight="bold" text-anchor="middle">2</text>
        <text x="30" y="13" fill="#94a3b8" font-size="8">competitor-website.com</text>
        <rect x="30" y="18" width="130" height="3" rx="1.5" fill="#475569" opacity="0.3"/>
        <rect x="30" y="25" width="100" height="3" rx="1.5" fill="#475569" opacity="0.3"/>
      </g>
      
      <!-- Result 3 -->
      <g transform="translate(15, 148)">
        <rect x="0" y="0" width="230" height="35" rx="5" fill="#0f172a" stroke="#334155" stroke-width="1" opacity="0.6"/>
        <circle cx="15" cy="17" r="8" fill="#94a3b8" opacity="0.3"/>
        <text x="15" y="21" fill="#64748b" font-size="8" font-weight="bold" text-anchor="middle">3</text>
        <text x="30" y="13" fill="#94a3b8" font-size="8">another-site.com</text>
        <rect x="30" y="18" width="120" height="3" rx="1.5" fill="#475569" opacity="0.3"/>
        <rect x="30" y="25" width="95" height="3" rx="1.5" fill="#475569" opacity="0.3"/>
      </g>
    </g>

    <!-- Center Section - Analytics -->
    <g transform="translate(310, 20)">
      <rect x="0" y="0" width="135" height="105" rx="8" fill="#1e293b" stroke="#334155" stroke-width="1.5" filter="url(#shadow)"/>
      <text x="10" y="20" fill="#fff" font-size="11" font-weight="bold" font-family="Arial, sans-serif">Rankings</text>
      
      <g transform="translate(10, 30)">
        <line x1="0" y1="15" x2="115" y2="15" stroke="#475569" stroke-width="0.5" opacity="0.2"/>
        <line x1="0" y1="40" x2="115" y2="40" stroke="#475569" stroke-width="0.5" opacity="0.2"/>
        <line x1="0" y1="65" x2="115" y2="65" stroke="#475569" stroke-width="0.5" opacity="0.2"/>
        <path d="M 5 63 L 30 61 L 55 62 L 80 60 L 105 62" stroke="#ef4444" stroke-width="1.5" fill="none" opacity="0.5" stroke-dasharray="3,3"/>
        <path d="M 5 63 L 30 48 L 55 28 L 80 18 L 105 12" stroke="#22c55e" stroke-width="2.5" fill="none" filter="url(#glow)">
          <animate attributeName="stroke-dasharray" from="0,200" to="200,0" dur="2s" fill="freeze"/>
        </path>
        <path d="M 5 63 L 30 48 L 55 28 L 80 18 L 105 12 L 105 70 L 5 70 Z" fill="url(#chartGrad)" opacity="0">
          <animate attributeName="opacity" values="0;0.4" dur="2s" fill="freeze"/>
        </path>
        <circle cx="105" cy="12" r="3" fill="#22c55e">
          <animate attributeName="r" values="3;5;3" dur="1s" repeatCount="indefinite"/>
        </circle>
      </g>
      
      <g transform="translate(10, 120)">
        <rect x="0" y="0" width="55" height="35" rx="5" fill="#0f172a" stroke="#22c55e" stroke-width="1"/>
        <text x="27.5" y="16" fill="#22c55e" font-size="13" font-weight="bold" text-anchor="middle">↑285%</text>
        <text x="27.5" y="28" fill="#94a3b8" font-size="7" text-anchor="middle">Visitors</text>
      </g>
      
      <g transform="translate(70, 120)">
        <rect x="0" y="0" width="55" height="35" rx="5" fill="#0f172a" stroke="#3b82f6" stroke-width="1"/>
        <text x="27.5" y="16" fill="#3b82f6" font-size="13" font-weight="bold" text-anchor="middle">+540</text>
        <text x="27.5" y="28" fill="#94a3b8" font-size="7" text-anchor="middle">Leads</text>
      </g>
      
      <g transform="translate(10, 165)">
        <rect x="0" y="0" width="115" height="35" rx="5" fill="#0f172a" stroke="#fbbf24" stroke-width="1"/>
        <text x="57.5" y="16" fill="#fbbf24" font-size="13" font-weight="bold" text-anchor="middle">RANK #1</text>
        <text x="57.5" y="28" fill="#94a3b8" font-size="7" text-anchor="middle">Top Position Achieved</text>
      </g>
    </g>

    <!-- Right Section - SEO Elements -->
    <g transform="translate(465, 20)">
      <rect x="0" y="0" width="115" height="210" rx="8" fill="#1e293b" stroke="#334155" stroke-width="1.5" filter="url(#shadow)"/>
      <text x="10" y="20" fill="#fff" font-size="11" font-weight="bold" font-family="Arial, sans-serif">SEO Boost</text>
      
      <g transform="translate(10, 35)">
        <rect x="0" y="0" width="95" height="28" rx="6" fill="#0f172a" stroke="#3b82f6" stroke-width="1"/>
        <circle cx="14" cy="14" r="8" fill="#3b82f6" opacity="0.2"/>
        <text x="14" y="17" fill="#3b82f6" font-size="10" text-anchor="middle">🔑</text>
        <text x="28" y="11" fill="#60a5fa" font-size="9" font-weight="bold">Keywords</text>
        <text x="28" y="21" fill="#94a3b8" font-size="7">Optimized</text>
      </g>
      
      <g transform="translate(10, 70)">
        <rect x="0" y="0" width="95" height="28" rx="6" fill="#0f172a" stroke="#8b5cf6" stroke-width="1"/>
        <circle cx="14" cy="14" r="8" fill="#8b5cf6" opacity="0.2"/>
        <text x="14" y="17" fill="#8b5cf6" font-size="10" text-anchor="middle">📝</text>
        <text x="28" y="11" fill="#a78bfa" font-size="9" font-weight="bold">Content</text>
        <text x="28" y="21" fill="#94a3b8" font-size="7">Premium</text>
      </g>
      
      <g transform="translate(10, 105)">
        <rect x="0" y="0" width="95" height="28" rx="6" fill="#0f172a" stroke="#ec4899" stroke-width="1"/>
        <circle cx="14" cy="14" r="8" fill="#ec4899" opacity="0.2"/>
        <text x="14" y="17" fill="#ec4899" font-size="10" text-anchor="middle">🔗</text>
        <text x="28" y="11" fill="#f472b6" font-size="9" font-weight="bold">Backlinks</text>
        <text x="28" y="21" fill="#94a3b8" font-size="7">Quality</text>
      </g>
      
      <g transform="translate(10, 140)">
        <rect x="0" y="0" width="95" height="28" rx="6" fill="#0f172a" stroke="#22c55e" stroke-width="1"/>
        <circle cx="14" cy="14" r="8" fill="#22c55e" opacity="0.2"/>
        <text x="14" y="17" fill="#22c55e" font-size="10" text-anchor="middle">⚡</text>
        <text x="28" y="11" fill="#4ade80" font-size="9" font-weight="bold">Speed</text>
        <text x="28" y="21" fill="#94a3b8" font-size="7">Lightning</text>
      </g>
      
      <g transform="translate(10, 175)">
        <rect x="0" y="0" width="95" height="28" rx="6" fill="#0f172a" stroke="#fbbf24" stroke-width="1"/>
        <circle cx="14" cy="14" r="8" fill="#fbbf24" opacity="0.2"/>
        <text x="14" y="17" fill="#fbbf24" font-size="10" text-anchor="middle">⚙️</text>
        <text x="28" y="11" fill="#fde047" font-size="9" font-weight="bold">Technical</text>
        <text x="28" y="21" fill="#94a3b8" font-size="7">Perfect</text>
      </g>
    </g>

    <!-- Connecting Lines -->
    <path d="M 290 80 L 310 80" stroke="#22c55e" stroke-width="1.5" opacity="0.4" stroke-dasharray="3,3">
      <animate attributeName="stroke-dashoffset" from="0" to="6" dur="0.8s" repeatCount="indefinite"/>
    </path>
    <path d="M 445 100 L 465 100" stroke="#3b82f6" stroke-width="1.5" opacity="0.4" stroke-dasharray="3,3">
      <animate attributeName="stroke-dashoffset" from="0" to="6" dur="0.8s" repeatCount="indefinite"/>
    </path>

    <!-- Particles -->
    <circle cx="300" cy="40" r="2" fill="#fbbf24" opacity="0.6">
      <animate attributeName="cy" values="40;30;40" dur="2s" repeatCount="indefinite"/>
      <animate attributeName="opacity" values="0.3;0.8;0.3" dur="2s" repeatCount="indefinite"/>
    </circle>
    <circle cx="450" cy="60" r="2" fill="#60a5fa" opacity="0.6">
      <animate attributeName="cy" values="60;50;60" dur="2.5s" repeatCount="indefinite"/>
      <animate attributeName="opacity" values="0.3;0.8;0.3" dur="2.5s" repeatCount="indefinite"/>
    </circle>
    <circle cx="380" cy="35" r="2" fill="#ec4899" opacity="0.6">
      <animate attributeName="cy" values="35;25;35" dur="2.2s" repeatCount="indefinite"/>
      <animate attributeName="opacity" values="0.3;0.8;0.3" dur="2.2s" repeatCount="indefinite"/>
    </circle>
  </g>

  <style>
    @media (max-width: 768px) {
      .desktop-view {
        display: none;
      }
      .mobile-view {
        display: block;
      }
    }
    @media (min-width: 769px) {
      .desktop-view {
        display: block;
      }
      .mobile-view {
        display: none;
      }
    }
  </style>

  <!-- Mobile Version (visible on smaller screens) -->
  <g class="mobile-view" style="display: none;">
    <!-- Single Column Layout for Mobile -->
    
    <!-- Top: Search Result #1 (Featured) -->
    <g transform="translate(20, 15)">
      <rect x="0" y="0" width="560" height="70" rx="10" fill="#1e293b" stroke="#fbbf24" stroke-width="2" filter="url(#glow)"/>
      
      <!-- Gold Badge -->
      <circle cx="35" cy="35" r="18" fill="url(#rankGrad)"/>
      <text x="35" y="41" fill="#0A0F1E" font-size="14" font-weight="bold" text-anchor="middle">1</text>
      
      <!-- Site Info -->
      <text x="65" y="25" fill="#fbbf24" font-size="14" font-weight="bold" font-family="Arial, sans-serif">Your Business Site - Ranking #1</text>
      <rect x="65" y="32" width="380" height="6" rx="3" fill="#60a5fa" opacity="0.5"/>
      <rect x="65" y="43" width="300" height="6" rx="3" fill="#8b5cf6" opacity="0.4"/>
      <rect x="65" y="54" width="340" height="6" rx="3" fill="#ec4899" opacity="0.3"/>
      
      <!-- Traffic -->
      <g transform="translate(500, 25)">
        <path d="M 0 12 L 0 0 L -6 6 M 0 0 L 6 6" stroke="#22c55e" stroke-width="2.5" fill="none"/>
        <text x="0" y="28" fill="#22c55e" font-size="11" text-anchor="middle" font-weight="bold">+350%</text>
      </g>
    </g>

    <!-- Middle: Analytics Chart -->
    <g transform="translate(20, 100)">
      <rect x="0" y="0" width="560" height="80" rx="10" fill="#1e293b" stroke="#334155" stroke-width="1.5" filter="url(#shadow)"/>
      <text x="15" y="20" fill="#fff" font-size="13" font-weight="bold" font-family="Arial, sans-serif">SEO Performance</text>
      
      <g transform="translate(15, 28)">
        <line x1="0" y1="12" x2="530" y2="12" stroke="#475569" stroke-width="0.5" opacity="0.2"/>
        <line x1="0" y1="30" x2="530" y2="30" stroke="#475569" stroke-width="0.5" opacity="0.2"/>
        <line x1="0" y1="48" x2="530" y2="48" stroke="#475569" stroke-width="0.5" opacity="0.2"/>
        
        <path d="M 10 46 L 140 44 L 270 45 L 400 43 L 520 45" stroke="#ef4444" stroke-width="2" fill="none" opacity="0.5" stroke-dasharray="4,4"/>
        <path d="M 10 46 L 140 35 L 270 20 L 400 12 L 520 8" stroke="#22c55e" stroke-width="3" fill="none" filter="url(#glow)">
          <animate attributeName="stroke-dasharray" from="0,600" to="600,0" dur="2s" fill="freeze"/>
        </path>
        <path d="M 10 46 L 140 35 L 270 20 L 400 12 L 520 8 L 520 52 L 10 52 Z" fill="url(#chartGrad)" opacity="0">
          <animate attributeName="opacity" values="0;0.4" dur="2s" fill="freeze"/>
        </path>
        <circle cx="520" cy="8" r="4" fill="#22c55e">
          <animate attributeName="r" values="4;6;4" dur="1s" repeatCount="indefinite"/>
        </circle>
      </g>
    </g>

    <!-- Bottom: Stats Row -->
    <g transform="translate(20, 195)">
      <rect x="0" y="0" width="180" height="40" rx="8" fill="#0f172a" stroke="#22c55e" stroke-width="1.5"/>
      <text x="90" y="18" fill="#22c55e" font-size="16" font-weight="bold" text-anchor="middle">↑ 285%</text>
      <text x="90" y="32" fill="#94a3b8" font-size="9" text-anchor="middle">Traffic Growth</text>
    </g>
    
    <g transform="translate(210, 195)">
      <rect x="0" y="0" width="180" height="40" rx="8" fill="#0f172a" stroke="#fbbf24" stroke-width="1.5"/>
      <text x="90" y="18" fill="#fbbf24" font-size="16" font-weight="bold" text-anchor="middle">RANK #1</text>
      <text x="90" y="32" fill="#94a3b8" font-size="9" text-anchor="middle">Top Position</text>
    </g>
    
    <g transform="translate(400, 195)">
      <rect x="0" y="0" width="180" height="40" rx="8" fill="#0f172a" stroke="#3b82f6" stroke-width="1.5"/>
      <text x="90" y="18" fill="#3b82f6" font-size="16" font-weight="bold" text-anchor="middle">+540</text>
      <text x="90" y="32" fill="#94a3b8" font-size="9" text-anchor="middle">Monthly Leads</text>
    </g>
  </g>
</svg>